<svg width="370" height="355" viewBox="0 0 370 355" fill="none" xmlns="http://www.w3.org/2000/svg">
<g clip-path="url(#clip0_139_279)">
<path d="M44.7223 149.516H10.2779C8.88406 149.516 7.75 150.65 7.75 152.043V198.543C7.75 199.937 8.88406 201.071 10.2779 201.071H10.3333V202.849C10.3333 203.768 11.0809 204.516 12 204.516H13.7222C14.6413 204.516 15.3891 203.768 15.3891 202.849V201.071H39.611V202.849C39.611 203.768 40.3587 204.516 41.2778 204.516H43C43.9191 204.516 44.6668 203.768 44.6668 202.849V201.071H44.7222C46.1161 201.071 47.2501 199.937 47.2501 198.543V152.043C47.2502 150.65 46.1161 149.516 44.7223 149.516ZM9.36133 154.571H40.4163C40.8612 154.571 41.222 154.211 41.222 153.766C41.222 153.321 40.8612 152.96 40.4163 152.96H9.36133V152.043C9.36133 151.538 9.77254 151.127 10.2779 151.127H44.7223C45.2277 151.127 45.6388 151.538 45.6388 152.043V152.96H43.8607C43.4157 152.96 43.055 153.321 43.055 153.766C43.055 154.211 43.4157 154.571 43.8607 154.571H45.6388V164.154H9.36133V154.571ZM40.4722 165.821V167.544C40.4722 167.574 40.4472 167.599 40.4166 167.599H14.5834C14.5528 167.599 14.5279 167.574 14.5279 167.544V165.821C14.5279 165.791 14.5528 165.766 14.5834 165.766H40.4166C40.4472 165.766 40.4722 165.791 40.4722 165.821ZM13.7778 202.849C13.7778 202.88 13.7529 202.904 13.7222 202.904H12C11.9694 202.904 11.9446 202.88 11.9446 202.849V201.071H13.7778V202.849ZM43.0556 202.849C43.0556 202.88 43.0307 202.904 43.0001 202.904H41.2779C41.2473 202.904 41.2224 202.88 41.2224 202.849V201.071H43.0556V202.849ZM45.639 192.571H14.5839C14.1389 192.571 13.7782 192.932 13.7782 193.377C13.7782 193.822 14.1389 194.182 14.5839 194.182H45.6388V198.543C45.6388 199.049 45.2276 199.46 44.7223 199.46H10.2779C9.77244 199.46 9.36133 199.049 9.36133 198.543V194.182H11.1395C11.5844 194.182 11.9452 193.822 11.9452 193.377C11.9452 192.932 11.5844 192.571 11.1395 192.571H9.36133V165.766H12.9195C12.9188 165.784 12.9167 165.803 12.9167 165.821V167.543C12.9167 168.463 13.6644 169.21 14.5835 169.21H40.4167C41.3358 169.21 42.0836 168.463 42.0836 167.543V165.821C42.0836 165.803 42.0815 165.784 42.0808 165.766H45.639V192.571Z" fill="#F9FAFB"/>
<path d="M31.375 156.404C29.7437 156.404 28.4165 157.732 28.4165 159.363C28.4165 160.994 29.7436 162.321 31.375 162.321C33.0063 162.321 34.3334 160.994 34.3334 159.363C34.3334 157.732 33.0062 156.404 31.375 156.404ZM31.375 160.71C30.6322 160.71 30.0278 160.106 30.0278 159.363C30.0278 158.62 30.6321 158.016 31.375 158.016C32.1178 158.016 32.7221 158.62 32.7221 159.363C32.7221 160.106 32.1177 160.71 31.375 160.71Z" fill="#F9FAFB"/>
<path d="M39.125 156.404C37.4937 156.404 36.1665 157.732 36.1665 159.363C36.1665 160.994 37.4936 162.321 39.125 162.321C40.7564 162.321 42.0835 160.994 42.0835 159.363C42.0834 157.732 40.7563 156.404 39.125 156.404ZM39.125 160.71C38.3822 160.71 37.7778 160.106 37.7778 159.363C37.7778 158.62 38.3821 158.016 39.125 158.016C39.8679 158.016 40.4722 158.62 40.4722 159.363C40.4721 160.106 39.8678 160.71 39.125 160.71Z" fill="#F9FAFB"/>
<path d="M15.875 156.404C14.2437 156.404 12.9165 157.732 12.9165 159.363C12.9165 160.994 14.2436 162.321 15.875 162.321C17.5064 162.321 18.8335 160.994 18.8335 159.363C18.8335 157.732 17.5063 156.404 15.875 156.404ZM15.875 160.71C15.1322 160.71 14.5278 160.106 14.5278 159.363C14.5278 158.62 15.1321 158.016 15.875 158.016C16.6179 158.016 17.2222 158.62 17.2222 159.363C17.2222 160.106 16.6178 160.71 15.875 160.71Z" fill="#F9FAFB"/>
<path d="M23.6249 156.404C21.9936 156.404 20.6665 157.732 20.6665 159.363C20.6665 160.994 21.9936 162.321 23.6249 162.321C25.2562 162.321 26.5834 160.994 26.5834 159.363C26.5834 157.732 25.2562 156.404 23.6249 156.404ZM23.6249 160.71C22.8821 160.71 22.2778 160.106 22.2778 159.363C22.2778 158.62 22.8821 158.016 23.6249 158.016C24.3677 158.016 24.9721 158.62 24.9721 159.363C24.9721 160.106 24.3677 160.71 23.6249 160.71Z" fill="#F9FAFB"/>
<path d="M40.4167 171.043H14.5834C13.6643 171.043 12.9165 171.791 12.9165 172.71V189.071C12.9165 189.99 13.6643 190.738 14.5834 190.738H40.4167V190.738C41.3358 190.738 42.0835 189.99 42.0835 189.071V172.71C42.0835 171.791 41.3358 171.043 40.4167 171.043ZM40.4722 189.071C40.4722 189.102 40.4473 189.127 40.4167 189.127H14.5834C14.5529 189.127 14.5279 189.102 14.5279 189.071V172.71C14.5279 172.679 14.5529 172.655 14.5835 172.655H40.4167C40.4473 172.655 40.4722 172.679 40.4722 172.71V189.071Z" fill="#F9FAFB"/>
<path d="M37.8336 183.099H17.167C16.7221 183.099 16.3613 183.46 16.3613 183.905C16.3613 184.349 16.7221 184.71 17.167 184.71H37.8336C38.2785 184.71 38.6393 184.349 38.6393 183.905C38.6393 183.46 38.2785 183.099 37.8336 183.099Z" fill="#F9FAFB"/>
<path d="M37.8336 177.071H17.167C16.7221 177.071 16.3613 177.432 16.3613 177.877C16.3613 178.322 16.7221 178.682 17.167 178.682H37.8336C38.2785 178.682 38.6393 178.322 38.6393 177.877C38.6393 177.432 38.2785 177.071 37.8336 177.071Z" fill="#F9FAFB"/>
</g>
<g clip-path="url(#clip1_139_279)">
<path d="M127.733 10.3645H127.677V1.69801C127.677 0.778908 126.93 0.03125 126.011 0.03125H84.6773C83.7582 0.03125 83.0105 0.778908 83.0105 1.69801V10.3645H82.9551C81.5612 10.3645 80.4272 11.4986 80.4272 12.8924V42.1701C80.4272 43.564 81.5613 44.698 82.9551 44.698H83.0105V53.3645C83.0105 54.2836 83.7582 55.0312 84.6773 55.0312H126.011C126.93 55.0312 127.677 54.2836 127.677 53.3645V44.698H127.733C129.127 44.698 130.261 43.5639 130.261 42.1701V12.8925C130.261 11.4986 129.127 10.3645 127.733 10.3645ZM106.15 1.64258H126.011C126.041 1.64258 126.066 1.6674 126.066 1.69801V10.3645H106.15V1.64258ZM84.622 1.69801C84.622 1.6674 84.6468 1.64258 84.6774 1.64258H104.538V10.3645H84.622V1.69801ZM126.066 53.3646C126.066 53.3952 126.041 53.42 126.011 53.42H106.15V44.6981H126.066V53.3646ZM128.649 20.6979H124.289C123.844 20.6979 123.483 21.0586 123.483 21.5035C123.483 21.9485 123.844 22.3092 124.289 22.3092H128.649V42.1701C128.649 42.6756 128.238 43.0868 127.733 43.0868H88.9826C88.5376 43.0868 88.1769 43.4475 88.1769 43.8924C88.1769 44.3374 88.5376 44.6981 88.9826 44.6981H104.538V53.42H84.6773C84.6467 53.42 84.6219 53.3952 84.6219 53.3646V44.6981H85.5387C85.9837 44.6981 86.3444 44.3374 86.3444 43.8924C86.3444 43.4475 85.9837 43.0868 85.5387 43.0868H82.9552C82.4498 43.0868 82.0387 42.6756 82.0387 42.1702V22.3092H120.844C121.289 22.3092 121.65 21.9485 121.65 21.5035C121.65 21.0586 121.289 20.6979 120.844 20.6979H82.0385V12.8924C82.0385 12.3869 82.4497 11.9758 82.955 11.9758H127.733C128.238 11.9758 128.649 12.387 128.649 12.8924L128.649 20.6979Z" fill="#F9FAFB"/>
<path d="M103.566 32.1009V27.5313C103.566 26.1374 102.432 25.0034 101.038 25.0034H98.4549C97.061 25.0034 95.927 26.1375 95.927 27.5313V32.1009C95.4142 32.3855 95.0659 32.9322 95.0659 33.5591V35.2813C95.0659 36.2004 95.8136 36.948 96.7327 36.948H102.76C103.68 36.948 104.427 36.2004 104.427 35.2813V33.5591C104.427 32.9322 104.079 32.3855 103.566 32.1009ZM97.5381 27.5313C97.5382 27.0259 97.9494 26.6148 98.4548 26.6148H101.038C101.543 26.6148 101.955 27.026 101.955 27.5313V31.8923H97.5381V27.5313ZM102.816 35.2813C102.816 35.3119 102.791 35.3367 102.76 35.3367H96.7326C96.702 35.3367 96.6771 35.3119 96.6771 35.2813V33.5591C96.6771 33.5285 96.702 33.5036 96.7326 33.5036H102.76C102.791 33.5036 102.816 33.5285 102.816 33.5591V35.2813Z" fill="#F9FAFB"/>
<path d="M114.76 32.1009V27.5313C114.76 26.1374 113.626 25.0034 112.232 25.0034H109.649C108.255 25.0034 107.121 26.1375 107.121 27.5313V32.1009C106.609 32.3855 106.26 32.9322 106.26 33.5591V35.2813C106.26 36.2004 107.008 36.948 107.927 36.948H113.955C114.874 36.948 115.622 36.2004 115.622 35.2813V33.5591C115.621 32.9322 115.273 32.3855 114.76 32.1009ZM108.733 27.5313C108.733 27.0259 109.144 26.6148 109.649 26.6148H112.232C112.738 26.6148 113.149 27.026 113.149 27.5313V31.8923H108.733V27.5313ZM114.01 35.2813C114.01 35.3119 113.985 35.3367 113.955 35.3367H107.927C107.896 35.3367 107.871 35.3119 107.871 35.2813V33.5591C107.871 33.5285 107.896 33.5036 107.927 33.5036H113.955C113.985 33.5036 114.01 33.5285 114.01 33.5591V35.2813Z" fill="#F9FAFB"/>
<path d="M125.955 32.1009V27.5313C125.955 26.1374 124.821 25.0034 123.427 25.0034H120.844C119.45 25.0034 118.316 26.1375 118.316 27.5313V32.1009C117.803 32.3855 117.455 32.9322 117.455 33.5591V35.2813C117.455 36.2004 118.202 36.948 119.121 36.948H125.149C126.068 36.948 126.816 36.2004 126.816 35.2813V33.5591C126.816 32.9322 126.468 32.3855 125.955 32.1009ZM119.927 27.5313C119.927 27.0259 120.338 26.6148 120.844 26.6148H123.427C123.932 26.6148 124.343 27.026 124.343 27.5313V31.8923H119.927V27.5313ZM125.205 35.2813C125.205 35.3119 125.18 35.3367 125.149 35.3367H119.121C119.091 35.3367 119.066 35.3119 119.066 35.2813V33.5591C119.066 33.5285 119.091 33.5036 119.121 33.5036H125.149C125.18 33.5036 125.205 33.5285 125.205 33.5591V35.2813Z" fill="#F9FAFB"/>
<path d="M92.3718 32.1009V27.5313C92.3718 26.1374 91.2377 25.0034 89.8439 25.0034H87.2605C85.8666 25.0034 84.7327 26.1375 84.7327 27.5313V32.1009C84.2198 32.3855 83.8716 32.9322 83.8716 33.5591V35.2813C83.8716 36.2004 84.6192 36.948 85.5383 36.948H91.5661C92.4852 36.948 93.233 36.2004 93.233 35.2813V33.5591C93.2329 32.9322 92.8846 32.3855 92.3718 32.1009ZM86.344 27.5313C86.344 27.0259 86.7552 26.6148 87.2605 26.6148H89.8438C90.3492 26.6148 90.7603 27.026 90.7603 27.5313V31.8923H86.344V27.5313ZM91.6217 35.2813H91.6215C91.6215 35.3119 91.5966 35.3367 91.566 35.3367H85.5383C85.5077 35.3367 85.4829 35.3119 85.4829 35.2813V33.5591C85.4829 33.5285 85.5077 33.5036 85.5383 33.5036H91.5661C91.5967 33.5036 91.6217 33.5285 91.6217 33.5591V35.2813Z" fill="#F9FAFB"/>
<path d="M99.3159 3.47565C97.922 3.47565 96.7881 4.6097 96.7881 6.0035C96.7881 7.39731 97.9221 8.53136 99.3159 8.53136C100.71 8.53136 101.844 7.39731 101.844 6.0035C101.844 4.6097 100.71 3.47565 99.3159 3.47565ZM99.3159 6.92014C98.8105 6.92014 98.3994 6.50892 98.3994 6.00361C98.3994 5.4983 98.8106 5.08709 99.3159 5.08709C99.8213 5.08709 100.232 5.4983 100.232 6.00361C100.232 6.50892 99.8214 6.92014 99.3159 6.92014Z" fill="#F9FAFB"/>
<path d="M89.8438 3.47565C88.4499 3.47565 87.3159 4.6097 87.3159 6.0035C87.3159 7.39731 88.45 8.53136 89.8438 8.53136C91.2376 8.53136 92.3716 7.39731 92.3716 6.0035C92.3716 4.6097 91.2377 3.47565 89.8438 3.47565ZM89.8438 6.92014C89.3384 6.92014 88.9272 6.50892 88.9272 6.00361C88.9272 5.4983 89.3385 5.08709 89.8438 5.08709C90.3491 5.08709 90.7603 5.4983 90.7603 6.00361C90.7603 6.50892 90.3492 6.92014 89.8438 6.92014Z" fill="#F9FAFB"/>
<path d="M120.844 3.47574C119.45 3.47574 118.316 4.60979 118.316 6.0036C118.316 7.3974 119.45 8.53145 120.844 8.53145C122.238 8.53145 123.372 7.3974 123.372 6.0036C123.372 4.60979 122.238 3.47574 120.844 3.47574ZM120.844 6.92001C120.338 6.92001 119.927 6.5088 119.927 6.00349C119.927 5.49817 120.338 5.08696 120.844 5.08696C121.349 5.08696 121.76 5.49817 121.76 6.00349C121.76 6.5088 121.349 6.92001 120.844 6.92001Z" fill="#F9FAFB"/>
<path d="M111.372 3.47574C109.978 3.47574 108.844 4.60979 108.844 6.0036C108.844 7.3974 109.978 8.53145 111.372 8.53145C112.766 8.53145 113.899 7.3974 113.899 6.0036C113.899 4.60979 112.765 3.47574 111.372 3.47574ZM111.372 6.92001C110.866 6.92001 110.455 6.5088 110.455 6.00349C110.455 5.49817 110.866 5.08696 111.372 5.08696C111.877 5.08696 112.288 5.49817 112.288 6.00349C112.288 6.5088 111.877 6.92001 111.372 6.92001Z" fill="#F9FAFB"/>
<path d="M111.372 46.5312C109.978 46.5312 108.844 47.6653 108.844 49.0591C108.844 50.4529 109.978 51.587 111.372 51.587C112.766 51.587 113.899 50.4529 113.899 49.0591C113.899 47.6653 112.765 46.5312 111.372 46.5312ZM111.372 49.9755C110.866 49.9755 110.455 49.5643 110.455 49.059C110.455 48.5537 110.866 48.1425 111.372 48.1425C111.877 48.1425 112.288 48.5537 112.288 49.059C112.288 49.5643 111.877 49.9755 111.372 49.9755Z" fill="#F9FAFB"/>
<path d="M120.844 46.5312C119.45 46.5312 118.316 47.6653 118.316 49.0591C118.316 50.4529 119.45 51.587 120.844 51.587C122.238 51.587 123.372 50.4529 123.372 49.0591C123.372 47.6653 122.238 46.5312 120.844 46.5312ZM120.844 49.9755C120.338 49.9755 119.927 49.5643 119.927 49.059C119.927 48.5537 120.338 48.1425 120.844 48.1425C121.349 48.1425 121.76 48.5537 121.76 49.059C121.76 49.5643 121.349 49.9755 120.844 49.9755Z" fill="#F9FAFB"/>
<path d="M89.8438 46.5312C88.45 46.5312 87.3159 47.6652 87.3159 49.059C87.3159 50.4529 88.45 51.5869 89.8438 51.5869C91.2376 51.5869 92.3716 50.4528 92.3716 49.059C92.3716 47.6652 91.2376 46.5312 89.8438 46.5312ZM89.8438 49.9755C89.3385 49.9755 88.9272 49.5643 88.9272 49.059C88.9272 48.5537 89.3385 48.1425 89.8438 48.1425C90.3492 48.1425 90.7603 48.5537 90.7603 49.059C90.7603 49.5643 90.3491 49.9755 89.8438 49.9755Z" fill="#F9FAFB"/>
<path d="M99.3159 46.5312C97.9221 46.5312 96.7881 47.6653 96.7881 49.0591C96.7881 50.4529 97.9221 51.587 99.3159 51.587C100.71 51.587 101.844 50.4529 101.844 49.0591C101.844 47.6653 100.71 46.5312 99.3159 46.5312ZM99.3159 49.9755C98.8106 49.9755 98.3994 49.5643 98.3994 49.059C98.3994 48.5537 98.8106 48.1425 99.3159 48.1425C99.8214 48.1425 100.232 48.5537 100.232 49.059C100.232 49.5643 99.8213 49.9755 99.3159 49.9755Z" fill="#F9FAFB"/>
<path d="M90.705 16.3924H86.3994C85.9545 16.3924 85.5938 16.7531 85.5938 17.1981C85.5938 17.643 85.9545 18.0037 86.3994 18.0037H90.705C91.1499 18.0037 91.5107 17.643 91.5107 17.1981C91.5107 16.7531 91.1499 16.3924 90.705 16.3924Z" fill="#F9FAFB"/>
<path d="M101.899 16.3924H97.5938C97.1488 16.3924 96.7881 16.7531 96.7881 17.1981C96.7881 17.643 97.1488 18.0037 97.5938 18.0037H101.899C102.344 18.0037 102.705 17.643 102.705 17.1981C102.705 16.7531 102.344 16.3924 101.899 16.3924Z" fill="#F9FAFB"/>
<path d="M113.094 16.3924H108.788C108.343 16.3924 107.982 16.7531 107.982 17.1981C107.982 17.643 108.343 18.0037 108.788 18.0037H113.094C113.539 18.0037 113.899 17.643 113.899 17.1981C113.899 16.7531 113.539 16.3924 113.094 16.3924Z" fill="#F9FAFB"/>
<path d="M124.288 16.3924H119.982C119.537 16.3924 119.177 16.7531 119.177 17.1981C119.177 17.643 119.537 18.0037 119.982 18.0037H124.288C124.733 18.0037 125.094 17.643 125.094 17.1981C125.094 16.7531 124.733 16.3924 124.288 16.3924Z" fill="#F9FAFB"/>
</g>
<g clip-path="url(#clip2_139_279)">
<path d="M236.553 190.072H223.561V165.869L224.245 166.28C224.422 166.386 224.617 166.437 224.81 166.437C225.183 166.437 225.547 166.246 225.753 165.903C226.065 165.383 225.896 164.708 225.376 164.396L196.02 146.782C195.672 146.573 195.237 146.573 194.889 146.782L165.534 164.396C165.013 164.708 164.845 165.383 165.157 165.903C165.469 166.423 166.144 166.592 166.664 166.28L167.349 165.869V194.769H166.099C165.492 194.769 165 195.261 165 195.868C165 196.475 165.492 196.967 166.099 196.967H216.666V209.959C216.666 211.859 218.213 213.406 220.113 213.406H236.553C238.454 213.406 240 211.859 240 209.959V193.519C240 191.619 238.454 190.072 236.553 190.072ZM169.546 164.551L195.455 149.005L221.364 164.551V183.027H216.516V167.686C216.516 167.079 216.024 166.588 215.417 166.588H175.493C174.886 166.588 174.394 167.079 174.394 167.686V183.027H169.546V164.551ZM214.318 168.785V172.459H198.902V168.785H214.318ZM196.704 168.785V183.027H194.205V168.785H196.704ZM176.591 172.459V168.785H192.008V172.459H176.591ZM192.008 174.656V183.027H176.591V174.656H192.008ZM216.667 193.519V194.769H169.546V185.224H208.372C208.979 185.224 209.471 184.732 209.471 184.126C209.471 183.519 208.979 183.027 208.372 183.027H198.902V174.656H214.318V183.027H213.068C212.461 183.027 211.97 183.519 211.97 184.126C211.97 184.732 212.461 185.224 213.068 185.224H221.364V190.072H220.114C218.213 190.072 216.667 191.619 216.667 193.519ZM237.803 209.959C237.803 210.648 237.242 211.209 236.553 211.209H220.114C219.425 211.209 218.864 210.648 218.864 209.959V193.519C218.864 192.83 219.425 192.27 220.114 192.27H236.553C237.242 192.27 237.803 192.83 237.803 193.519V209.959Z" fill="#F16630"/>
<path d="M231.591 201.123C231.387 200.821 231.046 200.64 230.682 200.64H227.608L229.353 196.276C229.579 195.713 229.305 195.073 228.741 194.848C228.178 194.622 227.539 194.897 227.313 195.46L224.965 201.331C224.829 201.67 224.871 202.053 225.075 202.355C225.279 202.657 225.62 202.838 225.985 202.838H229.059L227.313 207.202C227.088 207.766 227.362 208.405 227.925 208.63C228.059 208.684 228.197 208.709 228.333 208.709C228.769 208.709 229.182 208.448 229.353 208.018L231.702 202.147C231.837 201.809 231.796 201.425 231.591 201.123Z" fill="#F16630"/>
<path d="M229.508 171.285H227.159C226.552 171.285 226.061 171.776 226.061 172.383C226.061 172.99 226.552 173.482 227.159 173.482H229.508C231.492 173.482 233.106 175.096 233.106 177.08V186.474C233.106 187.081 233.598 187.573 234.204 187.573C234.811 187.573 235.303 187.081 235.303 186.474V177.08C235.303 173.884 232.703 171.285 229.508 171.285Z" fill="#F16630"/>
<path d="M213.068 206.512H203.674C201.69 206.512 200.076 204.897 200.076 202.913V200.565C200.076 199.958 199.584 199.466 198.978 199.466C198.371 199.466 197.879 199.958 197.879 200.565V202.913C197.879 206.109 200.479 208.709 203.674 208.709H213.068C213.675 208.709 214.167 208.217 214.167 207.61C214.167 207.003 213.675 206.512 213.068 206.512Z" fill="#F16630"/>
</g>
<g clip-path="url(#clip3_139_279)">
<path d="M106.756 308.26C105.16 305.478 102.863 303.162 100.094 301.543C97.3257 299.924 94.1814 299.058 90.9742 299.031H90.9634C87.6647 299.053 84.4332 299.966 81.6101 301.672C78.7869 303.379 76.477 305.816 74.9243 308.726C73.3715 311.637 72.6335 314.912 72.7882 318.208C72.943 321.503 73.9847 324.695 75.8033 327.447C75.8309 327.489 75.8621 327.528 75.8964 327.564C77.2551 328.998 78.597 332.183 79.6967 336.567C79.473 336.573 79.2605 336.666 79.1044 336.826C78.9483 336.986 78.8609 337.201 78.8609 337.425V342.015C78.8623 343.092 79.227 344.137 79.896 344.981C80.5651 345.825 81.4993 346.419 82.5476 346.666C82.8222 348.705 83.827 350.575 85.3757 351.929C86.9243 353.283 88.9115 354.029 90.9686 354.029C93.0257 354.029 95.0129 353.283 96.5615 351.929C98.1101 350.575 99.115 348.705 99.3896 346.666C100.438 346.419 101.372 345.825 102.041 344.981C102.71 344.137 103.075 343.092 103.076 342.015V337.425C103.076 337.201 102.989 336.986 102.833 336.826C102.677 336.666 102.464 336.573 102.24 336.567C103.34 332.183 104.682 328.998 106.041 327.565C106.075 327.529 106.106 327.489 106.134 327.448C108.002 324.62 109.05 321.33 109.16 317.942C109.269 314.555 108.437 311.203 106.756 308.261V308.26ZM90.9686 326.163C91.3564 326.163 91.7282 326.317 92.0025 326.591C92.2767 326.866 92.4309 327.238 92.4314 327.625V336.566H89.5058V327.625C89.5063 327.238 89.6605 326.866 89.9348 326.592C90.209 326.317 90.5808 326.163 90.9686 326.163ZM101.358 338.284V340.82H80.5796V338.284H101.358ZM90.9686 352.313C89.3891 352.313 87.8591 351.761 86.6429 350.754C85.4267 349.746 84.6007 348.345 84.3075 346.793H97.6297C97.3365 348.345 96.5105 349.746 95.2943 350.754C94.0781 351.761 92.5481 352.313 90.9686 352.313ZM98.298 345.074H83.6392C82.919 345.073 82.2222 344.819 81.6711 344.355C81.1199 343.891 80.7497 343.249 80.6255 342.539H101.312C101.188 343.249 100.817 343.891 100.266 344.355C99.715 344.819 99.0182 345.073 98.298 345.074ZM104.739 326.44C102.726 328.617 101.315 333.094 100.47 336.566H94.1501V327.625C94.1492 326.932 93.9219 326.257 93.5028 325.705C93.0837 325.152 92.4956 324.751 91.828 324.563V320.281L92.7661 318.526L93.8055 320.471C93.8788 320.608 93.9881 320.723 94.1216 320.803C94.2551 320.883 94.4078 320.926 94.5635 320.926H101.186C101.414 320.926 101.632 320.835 101.793 320.674C101.955 320.513 102.045 320.294 102.045 320.066C102.045 319.838 101.955 319.62 101.793 319.459C101.632 319.297 101.414 319.207 101.186 319.207H95.0787L93.5241 316.297C93.4507 316.16 93.3415 316.045 93.208 315.965C93.0745 315.885 92.9217 315.842 92.7661 315.842C92.6104 315.842 92.4577 315.885 92.3242 315.965C92.1907 316.045 92.0815 316.16 92.0081 316.297L90.9686 318.242L89.9292 316.297C89.8558 316.16 89.7466 316.045 89.6131 315.965C89.4796 315.885 89.3268 315.842 89.1712 315.842C89.0155 315.842 88.8627 315.885 88.7292 315.965C88.5957 316.045 88.4865 316.16 88.4131 316.297L86.8585 319.207H80.7515C80.5236 319.207 80.305 319.297 80.1438 319.459C79.9827 319.62 79.8921 319.838 79.8921 320.066C79.8921 320.294 79.9827 320.513 80.1438 320.674C80.305 320.835 80.5236 320.926 80.7515 320.926H87.3737C87.5294 320.926 87.6821 320.883 87.8156 320.803C87.9491 320.723 88.0583 320.608 88.1317 320.471L89.1712 318.526L90.1092 320.281V324.563C89.4416 324.751 88.8536 325.152 88.4345 325.705C88.0154 326.257 87.7881 326.932 87.7871 327.625V336.566H81.467C80.622 333.094 79.2112 328.617 77.1979 326.44C75.5566 323.953 74.6195 321.068 74.486 318.091C74.3526 315.114 75.0278 312.157 76.44 309.533C77.8521 306.909 79.9485 304.716 82.5066 303.188C85.0646 301.66 87.9888 300.853 90.9686 300.853C93.9484 300.853 96.8726 301.66 99.4306 303.188C101.989 304.716 104.085 306.909 105.497 309.533C106.909 312.157 107.585 315.114 107.451 318.091C107.318 321.068 106.381 323.953 104.739 326.44Z" fill="#F9FAFB"/>
</g>
<path d="M363.496 153.321H320.441C317.148 153.321 314.469 156 314.469 159.294V193.738C314.469 197.031 317.148 199.71 320.441 199.71H363.496C366.79 199.71 369.469 197.031 369.469 193.738V159.294C369.469 156 366.79 153.321 363.496 153.321ZM367.857 193.738C367.857 196.142 365.901 198.099 363.496 198.099H320.441C318.036 198.099 316.08 196.142 316.08 193.738V159.294C316.08 156.889 318.036 154.933 320.441 154.933H363.496C365.901 154.933 367.857 156.889 367.857 159.294V193.738Z" fill="#F9FAFB"/>
<path d="M354.885 161.071H323.886C322.966 161.071 322.219 161.819 322.219 162.738V190.293C322.219 191.212 322.966 191.96 323.886 191.96H325.608C326.053 191.96 326.414 191.599 326.414 191.154C326.414 190.709 326.053 190.349 325.608 190.349H323.886C323.855 190.349 323.83 190.324 323.83 190.293V162.738C323.83 162.707 323.855 162.682 323.886 162.682H354.885C355.33 162.682 355.691 162.322 355.691 161.877C355.691 161.432 355.33 161.071 354.885 161.071Z" fill="#F9FAFB"/>
<path d="M360.052 161.071H358.33C357.885 161.071 357.524 161.432 357.524 161.877C357.524 162.322 357.885 162.682 358.33 162.682H360.052C360.083 162.682 360.107 162.707 360.107 162.738V190.293C360.107 190.324 360.083 190.349 360.052 190.349H329.052C328.607 190.349 328.247 190.71 328.247 191.155C328.247 191.6 328.607 191.96 329.052 191.96H360.052C360.971 191.96 361.719 191.212 361.719 190.293V162.738C361.719 161.819 360.971 161.071 360.052 161.071Z" fill="#F9FAFB"/>
<path d="M341.968 165.377C335.826 165.377 330.83 170.374 330.83 176.516C330.83 182.658 335.827 187.654 341.968 187.654C348.11 187.654 353.107 182.658 353.107 176.516C353.107 170.374 348.111 165.377 341.968 165.377ZM341.052 167.032C341.354 167.003 341.659 166.988 341.968 166.988C342.278 166.988 342.583 167.003 342.885 167.032V167.905C342.885 168.41 342.474 168.821 341.968 168.821C341.463 168.821 341.052 168.41 341.052 167.905V167.032ZM342.885 185.999C342.583 186.028 342.278 186.043 341.968 186.043C341.659 186.043 341.354 186.028 341.052 185.999V185.127C341.052 184.621 341.463 184.21 341.968 184.21C342.474 184.21 342.885 184.621 342.885 185.127V185.999ZM344.496 185.702V185.127C344.496 183.733 343.362 182.599 341.968 182.599C340.575 182.599 339.441 183.733 339.441 185.127V185.702C335.41 184.592 332.441 180.894 332.441 176.516C332.441 172.137 335.41 168.439 339.441 167.329V167.904C339.441 169.298 340.575 170.432 341.968 170.432C343.362 170.432 344.496 169.298 344.496 167.904V167.329C348.527 168.439 351.496 172.137 351.496 176.516C351.496 180.894 348.527 184.592 344.496 185.702Z" fill="#F9FAFB"/>
<path d="M336.802 173.988C335.408 173.988 334.274 175.122 334.274 176.516C334.274 177.909 335.408 179.043 336.802 179.043C338.196 179.043 339.33 177.909 339.33 176.516C339.33 175.122 338.196 173.988 336.802 173.988ZM336.802 177.432C336.297 177.432 335.886 177.021 335.886 176.516C335.886 176.01 336.297 175.599 336.802 175.599C337.308 175.599 337.719 176.01 337.719 176.516C337.719 177.021 337.308 177.432 336.802 177.432Z" fill="#F9FAFB"/>
<path d="M347.135 173.988C345.742 173.988 344.607 175.122 344.607 176.516C344.607 177.909 345.741 179.043 347.135 179.043C348.529 179.043 349.663 177.909 349.663 176.516C349.663 175.122 348.529 173.988 347.135 173.988ZM347.135 177.432C346.63 177.432 346.219 177.021 346.219 176.516C346.219 176.01 346.63 175.599 347.135 175.599C347.641 175.599 348.052 176.01 348.052 176.516C348.052 177.021 347.641 177.432 347.135 177.432Z" fill="#F9FAFB"/>
<path d="M341.977 175.71H341.969C341.524 175.71 341.167 176.071 341.167 176.516C341.167 176.961 341.532 177.321 341.977 177.321C342.422 177.321 342.783 176.961 342.783 176.516C342.783 176.071 342.422 175.71 341.977 175.71Z" fill="#F9FAFB"/>
<path d="M281.496 303.321H238.441C235.148 303.321 232.469 306 232.469 309.294V343.738C232.469 347.031 235.148 349.71 238.441 349.71H281.496C284.79 349.71 287.469 347.031 287.469 343.738V309.294C287.469 306 284.79 303.321 281.496 303.321ZM285.857 343.738C285.857 346.142 283.901 348.099 281.496 348.099H238.441C236.036 348.099 234.08 346.142 234.08 343.738V309.294C234.08 306.889 236.036 304.933 238.441 304.933H281.496C283.901 304.933 285.857 306.889 285.857 309.294V343.738Z" fill="#F9FAFB"/>
<path d="M278.052 311.071H276.33C275.885 311.071 275.524 311.432 275.524 311.877C275.524 312.322 275.885 312.682 276.33 312.682H278.052C278.083 312.682 278.107 312.707 278.107 312.738V340.293C278.107 340.324 278.083 340.349 278.052 340.349H260.774V312.682H272.885C273.33 312.682 273.691 312.322 273.691 311.877C273.691 311.432 273.33 311.071 272.885 311.071H241.886C240.966 311.071 240.219 311.819 240.219 312.738V340.293C240.219 341.212 240.966 341.96 241.886 341.96H243.608C244.053 341.96 244.414 341.599 244.414 341.155C244.414 340.709 244.053 340.349 243.608 340.349H241.886C241.855 340.349 241.83 340.324 241.83 340.293V312.738C241.83 312.707 241.855 312.682 241.886 312.682H259.163V340.349H247.052C246.607 340.349 246.247 340.709 246.247 341.154C246.247 341.599 246.607 341.96 247.052 341.96H278.052C278.971 341.96 279.719 341.212 279.719 340.293V312.738C279.719 311.819 278.971 311.071 278.052 311.071Z" fill="#F9FAFB"/>
<path d="M254.802 335.182H246.191C245.746 335.182 245.385 335.543 245.385 335.988C245.385 336.433 245.746 336.793 246.191 336.793H254.802C255.247 336.793 255.608 336.433 255.608 335.988C255.608 335.543 255.247 335.182 254.802 335.182Z" fill="#F9FAFB"/>
<path d="M273.746 335.182H265.135C264.69 335.182 264.33 335.543 264.33 335.988C264.33 336.433 264.69 336.793 265.135 336.793H273.746C274.191 336.793 274.552 336.433 274.552 335.988C274.552 335.543 274.191 335.182 273.746 335.182Z" fill="#F9FAFB"/>
<g clip-path="url(#clip4_139_279)">
<path d="M287.797 34.2623L283.492 8.42897C283.218 6.7881 281.813 5.59711 280.149 5.59711H240.539C238.875 5.59711 237.469 6.7881 237.196 8.42897L232.89 34.2623C232.726 35.2469 233.002 36.2483 233.647 37.0099C234.292 37.7715 235.235 38.2083 236.233 38.2083H256.955V44.347H253.455C252.536 44.347 251.788 45.0947 251.788 46.0138V47.736C251.788 48.6551 252.536 49.4028 253.455 49.4028H267.233C268.152 49.4028 268.9 48.6551 268.9 47.736V46.0138C268.9 45.0947 268.152 44.347 267.233 44.347H263.733V38.2083H284.455C285.453 38.2083 286.395 37.7715 287.04 37.0099C287.686 36.2484 287.962 35.247 287.797 34.2623ZM261.15 7.20844H270.76L271.279 13.3472H261.15V7.20844ZM261.15 14.9585H271.415L271.934 21.0971H261.15V14.9585ZM261.15 22.7085H272.07L272.589 28.8472H261.15V22.7085ZM249.928 7.20844H259.538V13.3472H249.409L249.928 7.20844ZM249.272 14.9585H259.538V21.0971H248.753L249.272 14.9585ZM259.538 22.7085V28.8472H248.098L248.617 22.7085H259.538ZM238.785 8.69387C238.929 7.8332 239.666 7.20844 240.539 7.20844H248.311L247.792 13.3472H238.01L238.785 8.69387ZM246.481 28.8472H245.705C245.26 28.8472 244.9 29.2079 244.9 29.6529C244.9 30.0978 245.26 30.4585 245.705 30.4585H246.345L245.826 36.5972H236.233C235.709 36.5972 235.215 36.3681 234.877 35.9686C234.538 35.5691 234.393 35.0438 234.48 34.5273L235.158 30.4585H242.261C242.706 30.4585 243.067 30.0978 243.067 29.6529C243.067 29.2079 242.706 28.8472 242.261 28.8472H235.426L236.449 22.7085H247L246.481 28.8472ZM236.718 21.0971L237.741 14.9585H247.655L247.136 21.0971H236.718ZM247.443 36.5972L247.962 30.4585H259.538V36.5972H247.443ZM262.122 38.2084V44.3472H258.566V38.2084H262.122ZM267.233 45.9585C267.264 45.9585 267.288 45.9834 267.288 46.0139V47.7361C267.288 47.7667 267.264 47.7915 267.233 47.7915H253.455C253.425 47.7915 253.4 47.7667 253.4 47.7361V46.0139C253.4 45.9833 253.425 45.9585 253.455 45.9585H267.233ZM261.15 36.5972V30.4585H272.726L273.244 36.5972H261.15ZM273.032 14.9585H274.122C274.567 14.9585 274.928 14.5978 274.928 14.1528C274.928 13.7079 274.567 13.3472 274.122 13.3472H272.896L272.377 7.20844H280.149C281.022 7.20844 281.759 7.8332 281.902 8.69387L282.678 13.3472H277.566C277.121 13.3472 276.761 13.7079 276.761 14.1528C276.761 14.5978 277.121 14.9585 277.566 14.9585H282.947L283.97 21.0971H273.551L273.032 14.9585ZM273.688 22.7085H284.238L285.261 28.8472H274.206L273.688 22.7085ZM285.811 35.9686C285.472 36.3681 284.978 36.5972 284.455 36.5972H274.862L274.343 30.4585H285.53L286.208 34.5272C286.294 35.0438 286.149 35.5691 285.811 35.9686Z" fill="#F9FAFB"/>
</g>
<path d="M132.734 87.2506L132.31 87.5156L132.84 88.3636L133.264 88.0986L133.688 87.8336L133.158 86.9856L132.734 87.2506ZM134.324 89.7946L133.9 90.0596L134.96 91.7556L135.384 91.4906L135.808 91.2256L134.748 89.5296L134.324 89.7946ZM136.444 93.1866L136.02 93.4516L137.08 95.1476L137.504 94.8826L137.928 94.6176L136.868 92.9216L136.444 93.1866ZM138.564 96.5786L138.14 96.8436L139.2 98.5396L139.624 98.2746L140.048 98.0096L138.988 96.3136L138.564 96.5786ZM140.684 99.9706L140.26 100.236L141.32 101.932L141.744 101.667L142.168 101.402L141.108 99.7056L140.684 99.9706ZM142.804 103.363L142.38 103.628L143.44 105.324L143.864 105.059L144.288 104.794L143.228 103.098L142.804 103.363ZM144.924 106.755L144.5 107.02L145.56 108.716L145.984 108.451L146.408 108.186L145.348 106.49L144.924 106.755ZM147.044 110.147L146.62 110.412L147.68 112.108L148.104 111.843L148.528 111.578L147.468 109.882L147.044 110.147ZM149.164 113.539L148.74 113.804L149.8 115.5L150.224 115.235L150.648 114.97L149.588 113.274L149.164 113.539ZM151.284 116.931L150.86 117.196L151.92 118.892L152.344 118.627L152.768 118.362L151.708 116.666L151.284 116.931ZM153.404 120.323L152.98 120.588L154.04 122.284L154.464 122.019L154.888 121.754L153.828 120.058L153.404 120.323ZM155.524 123.715L155.1 123.98L156.16 125.676L156.584 125.411L157.008 125.146L155.948 123.45L155.524 123.715ZM157.644 127.107L157.22 127.372L158.28 129.068L158.704 128.803L159.128 128.538L158.068 126.842L157.644 127.107ZM159.764 130.499L159.34 130.764L160.4 132.46L160.824 132.195L161.248 131.93L160.188 130.234L159.764 130.499ZM161.884 133.891L161.46 134.156L162.52 135.852L162.944 135.587L163.368 135.322L162.308 133.626L161.884 133.891ZM164.004 137.283L163.58 137.548L164.64 139.244L165.064 138.979L165.488 138.714L164.428 137.018L164.004 137.283ZM166.124 140.675L165.7 140.94L166.23 141.788L166.654 141.523L167.078 141.258L166.548 140.41L166.124 140.675Z" fill="#F9FAFB"/>
<path d="M83.7344 178.516V179.016H84.7344V178.516V178.016H83.7344V178.516ZM86.7344 178.516V179.016H88.7344V178.516V178.016H86.7344V178.516ZM90.7344 178.516V179.016H92.7344V178.516V178.016H90.7344V178.516ZM94.7344 178.516V179.016H96.7344V178.516V178.016H94.7344V178.516ZM98.7344 178.516V179.016H100.734V178.516V178.016H98.7344V178.516ZM102.734 178.516V179.016H104.734V178.516V178.016H102.734V178.516ZM106.734 178.516V179.016H108.734V178.516V178.016H106.734V178.516ZM110.734 178.516V179.016H112.734V178.516V178.016H110.734V178.516ZM114.734 178.516V179.016H116.734V178.516V178.016H114.734V178.516ZM118.734 178.516V179.016H120.734V178.516V178.016H118.734V178.516ZM122.734 178.516V179.016H124.734V178.516V178.016H122.734V178.516ZM126.734 178.516V179.016H128.734V178.516V178.016H126.734V178.516ZM130.734 178.516V179.016H132.734V178.516V178.016H130.734V178.516ZM134.734 178.516V179.016H136.734V178.516V178.016H134.734V178.516ZM138.734 178.516V179.016H140.734V178.516V178.016H138.734V178.516ZM142.734 178.516V179.016H144.734V178.516V178.016H142.734V178.516ZM146.734 178.516V179.016H147.734V178.516V178.016H146.734V178.516Z" fill="#F9FAFB"/>
<path d="M254.734 176.516V177.016H255.734V176.516V176.016H254.734V176.516ZM257.734 176.516V177.016H259.734V176.516V176.016H257.734V176.516ZM261.734 176.516V177.016H263.734V176.516V176.016H261.734V176.516ZM265.734 176.516V177.016H267.734V176.516V176.016H265.734V176.516ZM269.734 176.516V177.016H271.734V176.516V176.016H269.734V176.516ZM273.734 176.516V177.016H275.734V176.516V176.016H273.734V176.516ZM277.734 176.516V177.016H279.734V176.516V176.016H277.734V176.516ZM281.734 176.516V177.016H283.734V176.516V176.016H281.734V176.516ZM285.734 176.516V177.016H287.734V176.516V176.016H285.734V176.516ZM289.734 176.516V177.016H291.734V176.516V176.016H289.734V176.516ZM293.734 176.516V177.016H295.734V176.516V176.016H293.734V176.516ZM297.734 176.516V177.016H299.734V176.516V176.016H297.734V176.516ZM301.734 176.516V177.016H303.734V176.516V176.016H301.734V176.516ZM305.734 176.516V177.016H307.734V176.516V176.016H305.734V176.516ZM309.734 176.516V177.016H311.734V176.516V176.016H309.734V176.516ZM313.734 176.516V177.016H315.734V176.516V176.016H313.734V176.516ZM317.734 176.516V177.016H318.734V176.516V176.016H317.734V176.516Z" fill="#F9FAFB"/>
<path d="M263.654 87.5156L264.078 87.7806L263.548 88.6286L263.124 88.3636L262.7 88.0986L263.23 87.2506L263.654 87.5156ZM262.064 90.0596L262.488 90.3246L261.428 92.0206L261.004 91.7556L260.58 91.4906L261.64 89.7946L262.064 90.0596ZM259.944 93.4516L260.368 93.7166L259.308 95.4126L258.884 95.1476L258.46 94.8826L259.52 93.1866L259.944 93.4516ZM257.824 96.8436L258.248 97.1086L257.188 98.8046L256.764 98.5396L256.34 98.2746L257.4 96.5786L257.824 96.8436ZM255.704 100.236L256.128 100.501L255.068 102.197L254.644 101.932L254.22 101.667L255.28 99.9706L255.704 100.236ZM253.584 103.628L254.008 103.893L252.948 105.589L252.524 105.324L252.1 105.059L253.16 103.363L253.584 103.628ZM251.464 107.02L251.888 107.285L250.828 108.981L250.404 108.716L249.98 108.451L251.04 106.755L251.464 107.02ZM249.344 110.412L249.768 110.677L248.708 112.373L248.284 112.108L247.86 111.843L248.92 110.147L249.344 110.412ZM247.224 113.804L247.648 114.069L246.588 115.765L246.164 115.5L245.74 115.235L246.8 113.539L247.224 113.804ZM245.104 117.196L245.528 117.461L244.468 119.157L244.044 118.892L243.62 118.627L244.68 116.931L245.104 117.196ZM242.984 120.588L243.408 120.853L242.348 122.549L241.924 122.284L241.5 122.019L242.56 120.323L242.984 120.588ZM240.864 123.98L241.288 124.245L240.228 125.941L239.804 125.676L239.38 125.411L240.44 123.715L240.864 123.98ZM238.744 127.372L239.168 127.637L238.108 129.333L237.684 129.068L237.26 128.803L238.32 127.107L238.744 127.372ZM236.624 130.764L237.048 131.029L235.988 132.725L235.564 132.46L235.14 132.195L236.2 130.499L236.624 130.764ZM234.504 134.156L234.928 134.421L233.868 136.117L233.444 135.852L233.02 135.587L234.08 133.891L234.504 134.156ZM232.384 137.548L232.808 137.813L231.748 139.509L231.324 139.244L230.9 138.979L231.96 137.283L232.384 137.548ZM230.264 140.94L230.688 141.205L230.158 142.053L229.734 141.788L229.31 141.523L229.84 140.675L230.264 140.94Z" fill="#F9FAFB"/>
<path d="M263.654 282.788L264.078 282.523L263.548 281.675L263.124 281.94L262.7 282.205L263.23 283.053L263.654 282.788ZM262.064 280.244L262.488 279.979L261.428 278.283L261.004 278.548L260.58 278.813L261.64 280.509L262.064 280.244ZM259.944 276.852L260.368 276.587L259.308 274.891L258.884 275.156L258.46 275.421L259.52 277.117L259.944 276.852ZM257.824 273.46L258.248 273.195L257.188 271.499L256.764 271.764L256.34 272.029L257.4 273.725L257.824 273.46ZM255.704 270.068L256.128 269.803L255.068 268.107L254.644 268.372L254.22 268.637L255.28 270.333L255.704 270.068ZM253.584 266.676L254.008 266.411L252.948 264.715L252.524 264.98L252.1 265.245L253.16 266.941L253.584 266.676ZM251.464 263.284L251.888 263.019L250.828 261.323L250.404 261.588L249.98 261.853L251.04 263.549L251.464 263.284ZM249.344 259.892L249.768 259.627L248.708 257.931L248.284 258.196L247.86 258.461L248.92 260.157L249.344 259.892ZM247.224 256.5L247.648 256.235L246.588 254.539L246.164 254.804L245.74 255.069L246.8 256.765L247.224 256.5ZM245.104 253.108L245.528 252.843L244.468 251.147L244.044 251.412L243.62 251.677L244.68 253.373L245.104 253.108ZM242.984 249.716L243.408 249.451L242.348 247.755L241.924 248.02L241.5 248.285L242.56 249.981L242.984 249.716ZM240.864 246.324L241.288 246.059L240.228 244.363L239.804 244.628L239.38 244.893L240.44 246.589L240.864 246.324ZM238.744 242.932L239.168 242.667L238.108 240.971L237.684 241.236L237.26 241.501L238.32 243.197L238.744 242.932ZM236.624 239.54L237.048 239.275L235.988 237.579L235.564 237.844L235.14 238.109L236.2 239.805L236.624 239.54ZM234.504 236.148L234.928 235.883L233.868 234.187L233.444 234.452L233.02 234.717L234.08 236.413L234.504 236.148ZM232.384 232.756L232.808 232.491L231.748 230.795L231.324 231.06L230.9 231.325L231.96 233.021L232.384 232.756ZM230.264 229.364L230.688 229.099L230.158 228.251L229.734 228.516L229.31 228.781L229.84 229.629L230.264 229.364Z" fill="#F9FAFB"/>
<path d="M132.734 282.788L132.31 282.523L132.84 281.675L133.264 281.94L133.688 282.205L133.158 283.053L132.734 282.788ZM134.324 280.244L133.9 279.979L134.96 278.283L135.384 278.548L135.808 278.813L134.748 280.509L134.324 280.244ZM136.444 276.852L136.02 276.587L137.08 274.891L137.504 275.156L137.928 275.421L136.868 277.117L136.444 276.852ZM138.564 273.46L138.14 273.195L139.2 271.499L139.624 271.764L140.048 272.029L138.988 273.725L138.564 273.46ZM140.684 270.068L140.26 269.803L141.32 268.107L141.744 268.372L142.168 268.637L141.108 270.333L140.684 270.068ZM142.804 266.676L142.38 266.411L143.44 264.715L143.864 264.98L144.288 265.245L143.228 266.941L142.804 266.676ZM144.924 263.284L144.5 263.019L145.56 261.323L145.984 261.588L146.408 261.853L145.348 263.549L144.924 263.284ZM147.044 259.892L146.62 259.627L147.68 257.931L148.104 258.196L148.528 258.461L147.468 260.157L147.044 259.892ZM149.164 256.5L148.74 256.235L149.8 254.539L150.224 254.804L150.648 255.069L149.588 256.765L149.164 256.5ZM151.284 253.108L150.86 252.843L151.92 251.147L152.344 251.412L152.768 251.677L151.708 253.373L151.284 253.108ZM153.404 249.716L152.98 249.451L154.04 247.755L154.464 248.02L154.888 248.285L153.828 249.981L153.404 249.716ZM155.524 246.324L155.1 246.059L156.16 244.363L156.584 244.628L157.008 244.893L155.948 246.589L155.524 246.324ZM157.644 242.932L157.22 242.667L158.28 240.971L158.704 241.236L159.128 241.501L158.068 243.197L157.644 242.932ZM159.764 239.54L159.34 239.275L160.4 237.579L160.824 237.844L161.248 238.109L160.188 239.805L159.764 239.54ZM161.884 236.148L161.46 235.883L162.52 234.187L162.944 234.452L163.368 234.717L162.308 236.413L161.884 236.148ZM164.004 232.756L163.58 232.491L164.64 230.795L165.064 231.06L165.488 231.325L164.428 233.021L164.004 232.756ZM166.124 229.364L165.7 229.099L166.23 228.251L166.654 228.516L167.078 228.781L166.548 229.629L166.124 229.364Z" fill="#F9FAFB"/>
<defs>
<clipPath id="clip0_139_279">
<rect width="55" height="55" fill="white" transform="translate(0 149.516)"/>
</clipPath>
<clipPath id="clip1_139_279">
<rect width="55" height="55" fill="white" transform="translate(77.8438 0.03125)"/>
</clipPath>
<clipPath id="clip2_139_279">
<rect width="75" height="75" fill="white" transform="translate(165 142.516)"/>
</clipPath>
<clipPath id="clip3_139_279">
<rect width="55" height="55" fill="white" transform="translate(63.4688 299.031)"/>
</clipPath>
<clipPath id="clip4_139_279">
<rect width="55" height="55" fill="white" transform="translate(232.844)"/>
</clipPath>
</defs>
</svg>
