<svg width="16" height="16" viewBox="0 0 16 16" fill="none" xmlns="http://www.w3.org/2000/svg">
<path d="M9.2215 11.0453C9.35918 11.1086 9.5143 11.123 9.66129 11.0863C9.80828 11.0496 9.93839 10.9639 10.0302 10.8433L10.2668 10.5333C10.391 10.3677 10.5521 10.2333 10.7372 10.1408C10.9224 10.0482 11.1265 10 11.3335 10H13.3335C13.6871 10 14.0263 10.1405 14.2763 10.3905C14.5264 10.6406 14.6668 10.9797 14.6668 11.3333V13.3333C14.6668 13.687 14.5264 14.0261 14.2763 14.2761C14.0263 14.5262 13.6871 14.6667 13.3335 14.6667C10.1509 14.6667 7.09865 13.4024 4.84821 11.1519C2.59778 8.90151 1.3335 5.84926 1.3335 2.66667C1.3335 2.31304 1.47397 1.9739 1.72402 1.72386C1.97407 1.47381 2.31321 1.33333 2.66683 1.33333H4.66683C5.02045 1.33333 5.35959 1.47381 5.60964 1.72386C5.85969 1.9739 6.00016 2.31304 6.00016 2.66667V4.66667C6.00016 4.87366 5.95197 5.07781 5.8594 5.26295C5.76683 5.44809 5.63242 5.60914 5.46683 5.73333L5.15483 5.96733C5.03244 6.06078 4.94618 6.19372 4.91069 6.34357C4.8752 6.49341 4.89268 6.65092 4.96016 6.78933C5.87128 8.63991 7.36978 10.1365 9.2215 11.0453Z" stroke="#F16630" stroke-width="1.5" stroke-linecap="round" stroke-linejoin="round"/>
</svg>
